{"glyphs":{":":{"x_min":0,"x_max":252,"ha":252,"o":"m 64 55 q 64 68 69 80 q 74 91 82 100 q 90 108 102 113 q 113 118 126 118 q 139 118 150 113 q 162 108 170 100 q 179 91 184 80 q 188 68 188 55 q 188 42 184 30 q 179 19 170 10 q 162 2 150 -3 q 139 -8 126 -8 q 113 -8 102 -3 q 90 2 82 10 q 74 19 69 30 q 64 42 64 55 z m 64 430 q 64 443 69 454 q 74 466 82 474 q 90 483 102 488 q 113 493 126 493 q 139 493 150 488 q 162 483 170 474 q 179 466 184 454 q 188 443 188 430 q 188 416 184 405 q 179 394 170 386 q 162 377 150 372 q 139 368 126 368 q 113 368 102 372 q 90 377 82 386 q 74 394 69 405 q 64 416 64 430 z"},"$":{"x_min":0,"x_max":580,"ha":580,"o":"m 249 -6 q 188 0 139 24 q 89 48 53 86 l 80 126 q 83 132 90 136 q 96 139 103 139 q 112 139 124 130 q 136 120 154 108 q 172 96 196 84 q 220 72 254 68 l 272 334 q 238 344 204 358 q 170 371 143 392 q 116 414 100 446 q 84 478 84 526 q 84 563 98 598 q 112 632 140 660 q 167 686 207 704 q 247 721 299 723 l 304 795 q 305 804 312 812 q 318 820 329 820 l 362 820 l 355 720 q 408 714 446 694 q 484 673 514 644 l 492 611 q 482 596 469 596 q 462 596 452 602 q 442 608 427 617 q 412 625 394 633 q 374 642 350 645 l 334 403 q 370 392 404 379 q 440 366 468 346 q 496 325 513 294 q 530 264 530 218 q 530 172 515 133 q 500 94 471 64 q 442 34 401 15 q 359 -4 306 -7 l 300 -95 q 298 -104 292 -112 q 285 -119 274 -119 l 242 -119 z m 446 204 q 446 228 436 246 q 427 264 411 278 q 395 290 374 300 q 352 310 328 318 l 310 68 q 343 72 368 83 q 394 94 411 112 q 428 129 437 152 q 446 176 446 204 z m 168 536 q 168 512 176 494 q 185 476 200 462 q 215 449 235 439 q 255 429 278 421 l 294 646 q 261 644 237 634 q 214 624 198 608 q 183 594 176 575 q 168 556 168 536 z"},"?":{"x_min":0,"x_max":398,"ha":398,"o":"m 17 652 q 32 667 51 680 q 70 693 92 703 q 114 713 140 719 q 166 724 196 724 q 236 724 269 713 q 303 702 328 680 q 352 660 366 630 q 380 600 380 562 q 380 524 369 496 q 358 469 340 448 q 323 428 302 412 q 282 397 264 384 q 246 370 234 356 q 221 343 219 326 l 210 250 l 149 250 l 143 333 l 143 338 q 143 360 154 376 q 166 392 183 406 q 200 420 220 435 q 240 449 257 466 q 274 484 285 506 q 296 528 296 558 q 296 579 288 596 q 280 614 265 626 q 250 638 231 645 q 211 652 188 652 q 158 652 136 644 q 114 636 100 628 q 84 618 75 611 q 66 604 60 604 q 48 604 40 615 z m 115 55 q 115 68 120 80 q 124 91 133 100 q 141 108 152 113 q 164 118 177 118 q 190 118 202 113 q 213 108 222 100 q 230 91 235 80 q 240 68 240 55 q 240 42 235 30 q 230 19 222 10 q 213 2 202 -3 q 190 -8 177 -8 q 164 -8 152 -3 q 141 2 133 10 q 124 19 120 30 q 115 42 115 55 z"},"<":{"x_min":0,"x_max":580,"ha":580,"o":"m 74 355 l 461 556 l 461 492 q 461 484 457 477 q 453 471 443 466 l 218 352 q 208 346 197 343 q 186 339 174 336 q 186 334 197 330 q 208 326 218 320 l 443 207 q 453 202 457 196 q 461 189 461 181 l 461 117 l 74 318 z"},"'":{"x_min":0,"x_max":230,"ha":230,"o":"m 154 716 l 154 572 l 146 494 q 144 478 137 469 q 130 460 114 460 q 102 460 94 469 q 87 478 84 494 l 76 572 l 76 716 z"},"=":{"x_min":0,"x_max":580,"ha":580,"o":"m 75 287 l 504 287 l 504 220 l 75 220 z m 75 454 l 504 454 l 504 387 l 75 387 z"},"a":{"x_min":0,"x_max":507,"ha":507,"o":"m 445 0 l 406 0 q 392 0 384 4 q 376 8 374 21 l 364 68 q 344 50 325 36 q 306 22 285 12 q 264 2 240 -3 q 216 -8 188 -8 q 158 -8 132 0 q 106 8 88 25 q 68 42 57 67 q 46 92 46 126 q 46 156 62 184 q 79 212 116 234 q 152 255 212 269 q 272 282 358 284 l 358 324 q 358 383 332 413 q 307 444 258 444 q 225 444 203 435 q 180 427 164 417 q 148 406 136 398 q 124 390 113 390 q 104 390 97 395 q 90 400 86 406 l 70 435 q 112 476 161 496 q 210 516 268 516 q 311 516 344 502 q 377 488 400 462 q 422 438 434 402 q 445 366 445 324 z m 214 54 q 238 54 257 59 q 276 64 294 73 q 311 82 327 94 q 342 106 358 122 l 358 228 q 296 226 253 218 q 210 210 183 198 q 156 186 144 168 q 132 152 132 130 q 132 110 138 96 q 144 82 156 72 q 166 63 182 59 q 196 54 214 54 z"},"L":{"x_min":0,"x_max":514,"ha":514,"o":"m 184 82 l 494 82 l 494 0 l 87 0 l 87 716 l 184 716 z"},"3":{"x_min":0,"x_max":580,"ha":580,"o":"m 310 724 q 356 724 394 712 q 432 698 460 674 q 488 650 504 616 q 519 582 519 541 q 519 507 510 480 q 502 454 485 433 q 469 413 446 399 q 423 385 394 376 q 464 358 500 314 q 535 271 535 206 q 535 156 516 116 q 498 77 465 49 q 432 22 389 7 q 346 -8 296 -8 q 240 -8 199 6 q 158 20 130 46 q 102 70 84 105 q 66 139 54 179 l 92 195 q 102 200 113 200 q 123 200 131 195 q 138 191 142 182 q 144 180 144 178 q 146 176 146 173 q 154 158 164 140 q 174 122 190 106 q 208 90 233 79 q 258 68 296 68 q 333 68 361 80 q 390 92 408 112 q 427 132 436 156 q 446 180 446 203 q 446 232 438 256 q 430 280 410 298 q 390 315 354 325 q 318 335 262 335 l 262 400 q 308 400 340 410 q 372 419 393 436 q 414 452 423 475 q 432 498 432 526 q 432 557 422 580 q 412 603 396 618 q 378 633 355 640 q 332 648 305 648 q 278 648 255 640 q 232 632 214 618 q 196 604 184 584 q 172 564 166 541 q 162 526 154 520 q 146 514 134 514 q 132 514 129 514 q 126 514 122 514 l 76 522 q 83 572 103 609 q 123 647 154 672 q 184 698 224 711 q 264 724 310 724 z"},";":{"x_min":0,"x_max":252,"ha":252,"o":"m 67 62 q 67 73 71 83 q 76 94 83 101 q 91 109 102 114 q 113 118 126 118 q 141 118 153 112 q 164 107 172 97 q 180 88 184 75 q 188 62 188 47 q 188 24 182 0 q 175 -24 163 -48 q 151 -72 133 -94 q 116 -116 93 -136 l 78 -121 q 72 -115 72 -107 q 72 -100 78 -94 q 84 -88 91 -79 q 99 -70 107 -58 q 115 -46 122 -31 q 128 -16 132 0 l 125 0 q 112 0 102 4 q 91 9 83 17 q 76 26 71 37 q 67 48 67 62 z m 64 430 q 64 443 69 454 q 74 466 82 474 q 90 483 102 488 q 113 493 126 493 q 139 493 150 488 q 162 483 170 474 q 179 466 184 454 q 188 443 188 430 q 188 416 184 405 q 179 394 170 386 q 162 377 150 372 q 139 368 126 368 q 113 368 102 372 q 90 377 82 386 q 74 394 69 405 q 64 416 64 430 z"},"J":{"x_min":0,"x_max":444,"ha":444,"o":"m 356 248 q 356 188 342 140 q 327 92 298 60 q 270 27 228 10 q 186 -8 131 -8 q 82 -8 30 6 q 31 20 32 35 q 34 49 36 63 q 36 72 42 77 q 47 82 58 82 q 66 82 82 78 q 96 73 122 73 q 154 73 180 83 q 206 93 224 114 q 242 135 251 168 q 260 200 260 246 l 260 716 l 356 716 z"},"V":{"x_min":0,"x_max":680,"ha":680,"o":"m 4 716 l 82 716 q 94 716 102 710 q 110 704 114 694 l 317 188 q 324 171 330 151 q 336 131 341 110 q 346 131 351 151 q 356 171 363 188 l 564 694 q 568 702 576 709 q 585 716 598 716 l 676 716 l 384 0 l 296 0 z"},"\"":{"x_min":0,"x_max":397,"ha":397,"o":"m 154 716 l 154 572 l 146 494 q 144 478 137 469 q 130 460 114 460 q 102 460 94 469 q 87 478 84 494 l 76 572 l 76 716 z m 320 716 l 320 572 l 312 494 q 310 478 304 469 q 296 460 281 460 q 268 460 261 469 q 254 478 250 494 l 242 572 l 242 716 z"},"7":{"x_min":0,"x_max":580,"ha":580,"o":"m 542 716 l 542 676 q 542 660 538 648 q 534 638 530 630 l 234 32 q 228 18 216 9 q 204 0 185 0 l 122 0 l 422 591 q 429 604 436 614 q 442 624 451 634 l 77 634 q 68 634 62 641 q 55 648 55 656 l 55 716 z"},"S":{"x_min":0,"x_max":530,"ha":530,"o":"m 454 604 q 450 597 444 593 q 440 590 432 590 q 423 590 412 598 q 400 606 383 617 q 366 627 342 636 q 318 644 283 644 q 250 644 226 635 q 200 626 184 612 q 167 596 158 576 q 150 556 150 532 q 150 502 165 483 q 180 463 204 449 q 228 435 259 425 q 290 414 322 404 q 354 392 385 379 q 416 365 440 344 q 464 323 479 292 q 494 262 494 218 q 494 170 478 129 q 462 88 431 58 q 400 27 355 10 q 310 -8 254 -8 q 184 -8 127 17 q 70 42 29 86 l 57 132 q 61 137 67 141 q 72 144 80 144 q 90 144 104 133 q 117 122 137 108 q 158 95 186 84 q 215 72 256 72 q 291 72 318 82 q 345 92 364 109 q 382 126 392 150 q 402 174 402 204 q 402 236 388 257 q 373 278 349 292 q 325 306 294 315 q 264 325 231 335 q 199 346 168 359 q 138 372 114 394 q 90 416 75 448 q 60 480 60 528 q 60 566 75 601 q 90 636 118 664 q 146 692 187 708 q 228 724 282 724 q 342 724 391 706 q 440 686 478 650 z"},"}":{"x_min":0,"x_max":300,"ha":300,"o":"m 210 212 q 210 188 214 163 q 218 138 222 114 q 227 89 231 64 q 235 40 235 14 q 235 -21 224 -50 q 214 -79 194 -100 q 173 -121 142 -133 q 112 -144 70 -144 l 44 -144 l 44 -104 q 44 -94 51 -90 q 58 -86 64 -86 l 74 -86 q 112 -86 135 -60 q 157 -36 157 8 q 157 36 154 62 q 150 88 146 113 q 141 138 138 162 q 134 186 134 212 q 134 230 140 246 q 145 262 155 275 q 166 288 179 297 q 193 306 210 311 q 193 316 179 325 q 166 334 155 347 q 145 360 140 376 q 134 392 134 411 q 134 436 138 460 q 141 485 146 510 q 150 534 154 560 q 157 586 157 614 q 157 658 135 683 q 112 708 74 708 l 64 708 q 58 708 51 712 q 44 717 44 727 l 44 766 l 70 766 q 112 766 142 755 q 173 744 194 722 q 214 702 224 672 q 235 644 235 609 q 235 583 231 558 q 227 533 222 508 q 218 484 214 460 q 210 435 210 410 q 210 378 227 358 q 244 338 278 338 l 278 284 q 244 284 227 264 q 210 244 210 212 z"},"Z":{"x_min":0,"x_max":624,"ha":624,"o":"m 586 716 l 586 680 q 586 664 576 648 l 170 79 l 579 79 l 579 0 l 43 0 l 43 38 q 43 53 52 66 l 458 638 l 62 638 l 62 716 z"},"x":{"x_min":0,"x_max":504,"ha":504,"o":"m 192 260 l 21 506 l 106 506 q 118 506 122 503 q 128 500 132 493 l 256 303 q 260 317 268 331 l 378 491 q 382 498 388 502 q 392 506 400 506 l 482 506 l 312 264 l 489 0 l 404 0 q 392 0 386 6 q 380 12 376 18 l 248 217 q 245 202 238 191 l 120 18 q 115 12 109 6 q 104 0 94 0 l 14 0 z"},")":{"x_min":0,"x_max":300,"ha":300,"o":"m 149 314 q 149 422 122 522 q 94 624 42 714 q 37 724 37 732 q 37 738 40 743 q 44 748 50 751 l 89 776 q 126 718 153 661 q 179 604 195 548 q 212 491 219 433 q 226 375 226 314 q 226 254 219 196 q 212 138 195 81 q 179 24 153 -32 q 126 -89 89 -146 l 50 -122 q 44 -119 40 -114 q 37 -110 37 -103 q 37 -99 38 -95 q 39 -91 42 -86 q 94 6 122 107 q 149 208 149 314 z"},"&":{"x_min":0,"x_max":703,"ha":703,"o":"m 330 724 q 370 724 402 712 q 434 699 458 678 q 482 657 496 629 q 510 602 512 572 l 456 560 q 454 560 452 560 q 445 560 439 564 q 434 567 431 576 q 428 589 420 603 q 412 617 400 628 q 388 640 370 648 q 353 655 330 655 q 305 655 285 647 q 265 639 251 625 q 236 610 229 591 q 221 572 221 550 q 221 532 225 516 q 230 500 238 484 q 246 468 260 450 q 274 433 292 414 l 498 204 q 518 238 529 275 q 540 312 544 348 q 545 358 550 364 q 555 369 564 369 l 619 369 q 618 312 600 256 q 583 200 550 152 l 700 0 l 614 0 q 600 0 590 4 q 582 7 570 18 l 498 90 q 452 45 390 18 q 329 -8 256 -8 q 216 -8 177 6 q 138 19 108 45 q 78 70 60 108 q 41 144 41 191 q 41 226 53 257 q 64 288 85 315 q 106 342 134 362 q 163 384 197 398 q 166 437 152 474 q 138 510 138 549 q 138 586 151 618 q 164 650 189 673 q 214 697 250 711 q 286 724 330 724 z m 132 198 q 132 166 144 141 q 156 116 175 99 q 194 82 220 73 q 244 64 270 64 q 326 64 371 85 q 416 106 450 140 l 238 353 q 185 324 158 285 q 132 245 132 198 z"},"_":{"x_min":0,"x_max":394,"ha":394,"o":"m 394 -82 l 394 -142 l 0 -142 l 0 -82 z"},"v":{"x_min":0,"x_max":512,"ha":512,"o":"m 9 506 l 82 506 q 92 506 100 501 q 106 496 110 488 l 238 162 q 245 144 249 126 q 253 108 256 90 q 260 108 265 126 q 270 144 276 162 l 406 488 q 410 496 416 501 q 423 506 433 506 l 502 506 l 296 0 l 216 0 z"},"O":{"x_min":0,"x_max":798,"ha":798,"o":"m 752 358 q 752 278 727 210 q 702 143 655 94 q 608 46 543 19 q 478 -8 399 -8 q 320 -8 255 19 q 190 46 144 94 q 97 143 72 210 q 46 278 46 358 q 46 438 72 506 q 97 573 144 622 q 190 670 255 698 q 320 724 399 724 q 478 724 543 698 q 608 670 655 622 q 702 573 727 506 q 752 438 752 358 z m 653 358 q 653 424 635 476 q 617 529 584 565 q 551 602 504 621 q 457 640 399 640 q 342 640 294 621 q 248 602 214 565 q 181 529 163 476 q 145 424 145 358 q 145 292 163 240 q 181 188 214 151 q 248 115 294 96 q 342 76 399 76 q 457 76 504 96 q 551 115 584 151 q 617 188 635 240 q 653 292 653 358 z"},"(":{"x_min":0,"x_max":300,"ha":300,"o":"m 144 314 q 144 208 172 107 q 200 6 252 -86 q 254 -91 256 -95 q 256 -99 256 -103 q 256 -110 253 -114 q 250 -119 244 -122 l 204 -146 q 167 -89 141 -32 q 114 24 98 81 q 82 138 74 196 q 67 254 67 314 q 67 375 74 433 q 82 491 98 548 q 114 604 141 661 q 167 718 204 776 l 244 751 q 250 748 253 743 q 256 738 256 732 q 256 724 252 714 q 199 624 172 522 q 144 422 144 314 z"},"C":{"x_min":0,"x_max":685,"ha":685,"o":"m 592 148 q 600 148 606 142 l 644 100 q 600 49 538 20 q 475 -8 386 -8 q 309 -8 246 19 q 183 46 138 94 q 94 142 70 210 q 45 277 45 358 q 45 439 71 506 q 98 574 145 622 q 192 671 259 698 q 325 724 405 724 q 484 724 541 700 q 598 676 643 634 l 612 589 q 608 584 604 581 q 599 578 590 578 q 584 578 577 582 q 570 587 560 594 q 550 601 536 609 q 522 617 504 624 q 486 631 461 636 q 436 640 404 640 q 347 640 299 621 q 252 601 217 564 q 182 528 163 476 q 144 423 144 358 q 144 291 163 238 q 182 186 216 150 q 249 114 294 94 q 340 76 392 76 q 424 76 450 79 q 476 83 497 91 q 519 99 538 111 q 556 124 576 140 q 584 148 592 148 z"},"W":{"x_min":0,"x_max":1019,"ha":1019,"o":"m 7 716 l 88 716 q 100 716 109 710 q 118 704 120 694 l 268 196 q 272 182 276 166 q 279 151 282 134 q 286 151 289 167 q 292 182 297 196 l 466 694 q 468 702 477 709 q 486 716 498 716 l 526 716 q 540 716 548 710 q 556 704 560 694 l 727 196 q 736 170 743 136 q 746 152 748 168 q 751 182 755 196 l 904 694 q 906 702 915 710 q 924 716 936 716 l 1012 716 l 788 0 l 701 0 l 520 546 q 514 562 510 582 q 507 572 505 563 q 502 554 500 546 l 318 0 l 230 0 z"},"A":{"x_min":0,"x_max":680,"ha":680,"o":"m 676 0 l 602 0 q 588 0 580 6 q 572 13 568 23 l 502 196 l 180 196 l 113 23 q 110 14 101 7 q 92 0 80 0 l 5 0 l 292 716 l 390 716 z m 207 266 l 474 266 l 362 558 q 351 584 340 625 q 335 604 330 587 q 324 570 320 557 z"},"f":{"x_min":0,"x_max":337,"ha":337,"o":"m 93 0 l 93 430 l 37 437 q 26 440 20 445 q 13 450 13 460 l 13 496 l 93 496 l 93 546 q 93 589 105 623 q 118 656 140 680 q 163 703 195 715 q 227 727 267 727 q 301 727 330 717 l 328 672 q 328 662 320 660 q 312 658 297 658 l 282 658 q 258 658 240 652 q 221 646 208 633 q 194 620 187 598 q 180 576 180 543 l 180 496 l 326 496 l 326 432 l 182 432 l 182 0 z"},"Q":{"x_min":0,"x_max":798,"ha":798,"o":"m 752 358 q 752 308 742 262 q 732 216 712 177 q 693 138 665 106 q 637 74 602 50 l 786 -148 l 706 -148 q 688 -148 674 -143 q 660 -138 648 -126 l 522 12 q 494 2 463 -2 q 432 -8 399 -8 q 320 -8 255 19 q 190 46 144 94 q 97 143 72 210 q 46 278 46 358 q 46 438 72 506 q 97 573 144 622 q 190 670 255 698 q 320 724 399 724 q 478 724 543 698 q 608 670 655 622 q 702 573 727 506 q 752 438 752 358 z m 653 358 q 653 424 635 476 q 617 529 584 565 q 551 602 504 621 q 457 640 399 640 q 342 640 294 621 q 248 602 214 565 q 181 529 163 476 q 145 424 145 358 q 145 292 163 240 q 181 188 214 151 q 248 115 294 96 q 342 76 399 76 q 457 76 504 96 q 551 115 584 151 q 617 188 635 240 q 653 292 653 358 z"},"w":{"x_min":0,"x_max":766,"ha":766,"o":"m 7 506 l 77 506 q 88 506 95 501 q 102 496 104 488 l 202 162 q 206 144 209 127 q 212 110 215 94 q 219 110 224 127 q 229 144 234 162 l 342 490 q 344 498 350 502 q 356 508 366 508 l 404 508 q 414 508 421 502 q 428 498 430 490 l 534 162 q 540 144 544 128 q 548 110 552 94 q 555 110 559 128 q 563 146 568 162 l 666 488 q 669 496 676 501 q 683 506 692 506 l 760 506 l 596 0 l 525 0 q 512 0 507 17 l 395 360 q 391 372 388 384 q 386 396 384 407 q 381 396 378 384 q 376 372 372 360 l 258 17 q 253 0 238 0 l 171 0 z"},"-":{"x_min":0,"x_max":347,"ha":347,"o":"m 50 338 l 297 338 l 297 262 l 50 262 z"},"E":{"x_min":0,"x_max":581,"ha":581,"o":"m 528 716 l 528 638 l 184 638 l 184 400 l 463 400 l 463 324 l 184 324 l 184 79 l 528 79 l 528 0 l 87 0 l 87 716 z"},"s":{"x_min":0,"x_max":434,"ha":434,"o":"m 363 423 q 357 412 344 412 q 337 412 328 418 q 318 423 304 430 q 290 436 272 442 q 252 448 226 448 q 204 448 186 442 q 168 436 155 426 q 142 416 136 403 q 129 390 129 374 q 129 355 140 342 q 152 329 170 320 q 188 310 212 303 q 236 296 260 287 q 285 279 308 269 q 332 259 350 244 q 369 229 380 207 q 392 186 392 155 q 392 120 379 90 q 366 60 342 39 q 318 17 282 4 q 246 -8 200 -8 q 147 -8 104 9 q 61 26 31 54 l 52 88 q 56 94 62 98 q 67 101 76 101 q 85 101 95 94 q 105 87 119 78 q 134 70 154 63 q 174 56 204 56 q 230 56 250 63 q 270 70 282 81 q 296 92 302 108 q 308 122 308 140 q 308 160 297 174 q 286 188 267 198 q 248 208 225 215 q 201 222 176 230 q 152 238 128 248 q 104 258 86 274 q 67 290 56 312 q 44 335 44 368 q 44 396 56 423 q 68 450 92 470 q 114 490 148 502 q 182 514 224 514 q 274 514 314 499 q 354 483 383 456 z"},">":{"x_min":0,"x_max":580,"ha":580,"o":"m 119 117 l 119 181 q 119 189 123 196 q 127 202 137 207 l 362 320 q 372 326 382 330 q 393 334 406 336 q 393 339 382 343 q 372 346 362 352 l 137 466 q 127 471 123 477 q 119 484 119 492 l 119 556 l 506 355 l 506 318 z"},"l":{"x_min":0,"x_max":256,"ha":256,"o":"m 172 736 l 172 0 l 83 0 l 83 736 z"},"8":{"x_min":0,"x_max":580,"ha":580,"o":"m 290 -8 q 236 -8 192 6 q 147 20 115 47 q 83 74 66 111 q 48 149 48 196 q 48 265 84 310 q 120 354 187 374 q 130 394 102 436 q 73 478 73 536 q 73 576 88 610 q 104 644 132 670 q 161 696 201 710 q 240 724 290 724 q 338 724 378 710 q 418 696 446 670 q 475 644 490 610 q 506 576 506 536 q 506 478 477 436 q 448 394 392 374 q 459 354 495 310 q 531 265 531 196 q 531 149 513 111 q 496 74 464 47 q 432 20 388 6 q 343 -8 290 -8 z m 290 63 q 324 63 352 73 q 380 82 399 100 q 418 118 429 143 q 439 168 439 198 q 439 234 427 261 q 414 287 394 304 q 373 320 346 328 q 319 336 290 336 q 260 336 233 328 q 206 320 185 304 q 164 287 152 261 q 140 234 140 198 q 140 168 150 143 q 160 118 180 100 q 199 82 227 73 q 254 63 290 63 z m 290 407 q 324 407 349 418 q 374 428 390 446 q 405 464 412 487 q 419 510 419 534 q 419 560 411 582 q 402 604 386 620 q 370 636 346 646 q 322 656 290 656 q 258 656 233 646 q 209 636 193 620 q 176 604 168 582 q 160 560 160 534 q 160 510 167 487 q 174 464 190 446 q 205 428 230 418 q 254 407 290 407 z"},"\\":{"x_min":0,"x_max":375,"ha":375,"o":"m -10 736 l 28 736 q 44 736 56 728 q 68 720 75 704 l 376 -45 l 338 -45 q 324 -45 310 -36 q 296 -28 289 -10 z"},"e":{"x_min":0,"x_max":524,"ha":524,"o":"m 274 514 q 319 514 358 499 q 396 484 424 455 q 452 426 468 384 q 484 342 484 288 q 484 267 479 260 q 474 253 462 253 l 125 253 q 126 205 138 170 q 150 134 171 110 q 192 86 221 75 q 250 63 286 63 q 320 63 344 71 q 368 78 386 88 q 403 96 415 104 q 426 112 435 112 q 446 112 452 104 l 477 71 q 460 51 438 36 q 414 22 388 12 q 362 2 334 -2 q 306 -7 278 -7 q 226 -7 182 11 q 138 28 105 63 q 73 97 55 148 q 37 198 37 264 q 37 316 53 362 q 70 408 100 442 q 130 476 174 495 q 218 514 274 514 z m 276 449 q 211 449 174 412 q 137 374 128 308 l 404 308 q 404 340 395 365 q 386 391 370 410 q 354 428 330 439 q 306 449 276 449 z"},"b":{"x_min":0,"x_max":559,"ha":559,"o":"m 76 0 l 76 736 l 166 736 l 166 434 q 197 470 238 492 q 278 514 331 514 q 375 514 410 498 q 446 482 471 449 q 496 416 510 368 q 523 320 523 256 q 523 200 508 152 q 493 104 465 69 q 436 34 396 13 q 355 -7 304 -7 q 255 -7 221 12 q 186 31 161 65 l 156 19 q 152 0 134 0 z m 302 444 q 258 444 226 424 q 193 404 166 367 l 166 122 q 190 89 219 76 q 248 62 284 62 q 355 62 393 112 q 431 163 431 256 q 431 306 422 342 q 414 377 397 400 q 380 422 356 433 q 332 444 302 444 z"},"%":{"x_min":0,"x_max":786,"ha":786,"o":"m 354 544 q 354 502 340 468 q 328 435 306 412 q 284 390 255 378 q 226 366 194 366 q 160 366 132 378 q 103 390 82 412 q 60 435 48 468 q 36 502 36 544 q 36 586 48 620 q 60 654 82 676 q 103 700 132 712 q 160 724 194 724 q 228 724 257 712 q 286 700 308 676 q 329 654 341 620 q 354 586 354 544 z m 284 544 q 284 576 277 600 q 270 622 258 637 q 246 652 229 658 q 213 665 194 665 q 176 665 160 658 q 144 652 132 637 q 120 622 113 600 q 106 576 106 544 q 106 511 113 488 q 120 466 132 451 q 144 437 160 431 q 176 424 194 424 q 213 424 229 431 q 246 437 258 451 q 270 466 277 488 q 284 511 284 544 z m 604 698 q 610 707 618 712 q 625 716 637 716 l 701 716 l 178 14 q 172 8 166 4 q 158 0 149 0 l 83 0 z m 750 169 q 750 127 736 94 q 724 61 702 38 q 680 16 651 4 q 622 -8 591 -8 q 557 -8 528 4 q 500 16 478 38 q 456 61 444 94 q 432 127 432 169 q 432 212 444 246 q 456 280 478 302 q 500 326 528 338 q 557 350 591 350 q 624 350 654 338 q 682 326 704 302 q 726 280 738 246 q 750 212 750 169 z m 680 169 q 680 202 674 225 q 666 248 654 263 q 642 278 626 284 q 610 290 591 290 q 572 290 556 284 q 540 278 528 263 q 516 248 509 225 q 502 202 502 169 q 502 136 509 114 q 516 92 528 77 q 540 63 556 57 q 572 50 591 50 q 610 50 626 57 q 642 63 654 77 q 666 92 674 114 q 680 136 680 169 z"},"m":{"x_min":0,"x_max":821,"ha":821,"o":"m 73 0 l 73 506 l 126 506 q 145 506 150 488 l 156 436 q 184 470 219 492 q 254 514 300 514 q 352 514 383 486 q 415 458 429 409 q 440 436 457 456 q 474 476 496 490 q 517 502 541 508 q 566 514 590 514 q 630 514 662 502 q 693 489 715 464 q 736 440 748 404 q 760 368 760 322 l 760 0 l 670 0 l 670 322 q 670 382 644 413 q 618 444 569 444 q 547 444 527 436 q 508 428 492 413 q 478 398 469 375 q 460 352 460 322 l 460 0 l 371 0 l 371 322 q 371 384 346 414 q 322 444 275 444 q 242 444 214 426 q 186 408 162 378 l 162 0 z"},"#":{"x_min":0,"x_max":580,"ha":580,"o":"m 395 212 l 353 0 l 312 0 q 301 0 293 8 q 285 17 285 30 q 285 32 285 34 q 286 36 286 38 l 322 212 l 198 212 l 162 34 q 158 16 147 8 q 136 0 122 0 l 82 0 l 124 212 l 52 212 q 40 212 34 217 q 27 223 27 237 q 27 240 27 242 q 28 246 28 248 l 32 277 l 134 277 l 166 440 l 50 440 l 57 477 q 60 492 68 498 q 78 506 97 506 l 176 506 l 212 684 q 215 700 226 708 q 236 716 252 716 l 292 716 l 250 506 l 373 506 l 415 716 l 454 716 q 467 716 475 709 q 484 702 484 690 q 484 686 483 683 l 446 506 l 552 506 l 546 468 q 544 454 534 447 q 525 440 506 440 l 437 440 l 404 277 l 494 277 q 506 277 512 271 q 519 266 519 251 q 519 248 519 246 q 518 243 518 240 l 514 212 z m 208 277 l 331 277 l 364 440 l 240 440 z"},",":{"x_min":0,"x_max":212,"ha":212,"o":"m 47 62 q 47 73 51 83 q 56 94 63 101 q 71 109 82 114 q 93 118 106 118 q 121 118 133 112 q 144 107 152 97 q 160 88 164 75 q 168 62 168 47 q 168 24 162 0 q 155 -24 143 -48 q 131 -72 113 -94 q 96 -116 73 -136 l 58 -121 q 52 -115 52 -107 q 52 -100 58 -94 q 64 -88 71 -79 q 79 -70 87 -58 q 95 -46 102 -31 q 108 -16 112 0 l 105 0 q 92 0 82 4 q 71 9 63 17 q 56 26 51 37 q 47 48 47 62 z"},"n":{"x_min":0,"x_max":556,"ha":556,"o":"m 73 0 l 73 506 l 126 506 q 145 506 150 488 l 157 433 q 190 470 231 492 q 272 514 325 514 q 366 514 398 501 q 430 487 451 462 q 472 436 484 401 q 494 366 494 322 l 494 0 l 406 0 l 406 322 q 406 380 379 412 q 353 444 299 444 q 260 444 225 424 q 191 406 162 373 l 162 0 z"},"h":{"x_min":0,"x_max":556,"ha":556,"o":"m 73 0 l 73 736 l 162 736 l 162 438 q 194 473 234 494 q 274 514 325 514 q 366 514 398 501 q 430 487 451 462 q 472 436 484 401 q 494 366 494 322 l 494 0 l 406 0 l 406 322 q 406 380 379 412 q 353 444 299 444 q 260 444 225 424 q 191 406 162 373 l 162 0 z"},"z":{"x_min":0,"x_max":462,"ha":462,"o":"m 426 468 q 426 459 423 450 q 420 442 414 434 l 140 70 l 416 70 l 416 0 l 35 0 l 35 37 q 35 44 38 52 q 42 61 48 69 l 323 436 l 50 436 l 50 506 l 426 506 z"},"B":{"x_min":0,"x_max":647,"ha":647,"o":"m 87 0 l 87 716 l 316 716 q 382 716 429 704 q 477 690 508 666 q 538 642 553 608 q 568 573 568 530 q 568 503 560 478 q 552 454 535 433 q 518 412 493 396 q 468 379 434 368 q 512 353 552 312 q 592 271 592 204 q 592 158 575 121 q 558 84 526 56 q 494 30 447 15 q 400 0 340 0 z m 184 326 l 184 77 l 339 77 q 380 77 410 86 q 440 96 459 113 q 478 130 488 154 q 496 178 496 206 q 496 262 457 294 q 418 326 338 326 z m 184 396 l 312 396 q 353 396 383 404 q 413 414 433 430 q 452 446 462 468 q 472 491 472 518 q 472 581 434 610 q 396 640 316 640 l 184 640 z"},"K":{"x_min":0,"x_max":681,"ha":681,"o":"m 194 402 l 230 402 q 249 402 260 407 q 272 412 282 424 l 520 694 q 531 706 541 711 q 552 716 568 716 l 650 716 l 377 408 q 366 396 357 388 q 348 380 338 376 q 352 371 362 362 q 372 353 384 340 l 669 0 l 585 0 q 576 0 569 2 q 562 3 558 6 q 553 8 549 12 q 545 16 541 20 l 294 305 q 288 311 283 315 q 278 320 272 322 q 266 326 258 327 q 250 328 238 328 l 194 328 l 194 0 l 97 0 l 97 716 l 194 716 z"},"R":{"x_min":0,"x_max":644,"ha":644,"o":"m 194 299 l 194 0 l 97 0 l 97 716 l 300 716 q 368 716 417 703 q 466 689 499 663 q 531 637 546 600 q 562 564 562 518 q 562 480 550 447 q 538 414 515 388 q 492 362 460 343 q 427 324 386 315 q 404 304 418 284 l 626 0 l 540 0 q 514 0 502 20 l 316 276 q 307 288 297 294 q 287 299 267 299 z m 194 370 l 295 370 q 338 370 370 380 q 402 390 424 409 q 446 428 456 454 q 468 480 468 511 q 468 575 425 608 q 383 640 300 640 l 194 640 z"},"T":{"x_min":0,"x_max":590,"ha":590,"o":"m 575 716 l 575 635 l 344 635 l 344 0 l 246 0 l 246 635 l 14 635 l 14 716 z"},"P":{"x_min":0,"x_max":611,"ha":611,"o":"m 194 268 l 194 0 l 97 0 l 97 716 l 308 716 q 376 716 427 701 q 477 685 510 656 q 543 627 559 586 q 576 545 576 494 q 576 444 558 403 q 540 362 507 332 q 473 302 423 285 q 373 268 308 268 z m 194 345 l 308 345 q 350 345 382 356 q 414 367 435 387 q 456 406 468 434 q 478 462 478 494 q 478 563 436 602 q 394 640 308 640 l 194 640 z"},"|":{"x_min":0,"x_max":300,"ha":300,"o":"m 115 766 l 184 766 l 184 -172 l 115 -172 z"},"t":{"x_min":0,"x_max":373,"ha":373,"o":"m 226 -8 q 166 -8 134 26 q 102 59 102 122 l 102 432 l 41 432 q 33 432 28 437 q 22 442 22 452 l 22 487 l 105 498 l 126 654 q 126 662 132 666 q 138 671 146 671 l 191 671 l 191 496 l 336 496 l 336 432 l 191 432 l 191 128 q 191 96 206 80 q 222 65 246 65 q 260 65 271 69 q 281 72 288 77 q 296 82 301 85 q 306 89 310 89 q 318 89 323 80 l 349 38 q 326 16 294 4 q 261 -8 226 -8 z"},"M":{"x_min":0,"x_max":920,"ha":920,"o":"m 440 259 q 446 247 452 234 q 457 220 462 207 q 467 221 472 234 q 478 246 485 260 l 728 700 q 734 712 741 714 q 748 716 761 716 l 832 716 l 832 0 l 748 0 l 748 526 q 748 537 748 549 q 748 561 750 574 l 504 126 q 492 103 469 103 l 455 103 q 432 103 420 126 l 169 575 q 170 562 171 550 q 172 537 172 526 l 172 0 l 87 0 l 87 716 l 158 716 q 172 716 178 714 q 186 712 192 700 l 440 259 z"},"g":{"x_min":0,"x_max":511,"ha":511,"o":"m 244 515 q 276 515 305 508 q 334 500 358 486 l 495 486 l 495 454 q 495 437 474 432 l 416 424 q 434 392 434 352 q 434 315 419 285 q 405 254 380 233 q 354 212 320 200 q 285 188 244 188 q 208 188 176 197 q 160 187 152 176 q 144 164 144 153 q 144 135 158 126 q 173 116 197 112 q 221 108 252 108 q 282 106 314 104 q 346 102 376 96 q 406 91 430 78 q 454 66 469 44 q 484 22 484 -13 q 484 -46 467 -76 q 451 -106 420 -130 q 390 -154 346 -168 q 302 -182 246 -182 q 191 -182 149 -172 q 108 -160 80 -142 q 52 -124 39 -99 q 25 -75 25 -48 q 25 -11 49 15 q 72 42 114 57 q 92 67 80 84 q 67 100 67 128 q 67 140 71 151 q 75 163 83 174 q 92 186 104 196 q 116 207 132 215 q 94 236 73 271 q 52 306 52 352 q 52 389 66 419 q 80 450 106 471 q 131 492 166 504 q 202 515 244 515 z m 402 -28 q 402 -8 391 3 q 380 14 362 21 q 344 27 321 30 q 298 33 272 34 q 246 36 218 37 q 192 38 167 42 q 138 29 121 10 q 103 -10 103 -37 q 103 -54 112 -69 q 120 -84 138 -94 q 156 -105 184 -111 q 211 -118 248 -118 q 284 -118 312 -111 q 341 -104 361 -92 q 380 -80 391 -64 q 402 -48 402 -28 z m 244 248 q 270 248 291 255 q 312 262 326 276 q 340 290 347 308 q 354 327 354 350 q 354 396 326 424 q 298 451 244 451 q 190 451 162 424 q 134 396 134 350 q 134 327 141 308 q 148 290 162 276 q 176 262 196 255 q 217 248 244 248 z"},"j":{"x_min":0,"x_max":254,"ha":254,"o":"m 172 506 l 172 -38 q 172 -68 164 -94 q 156 -120 139 -140 q 122 -160 94 -171 q 67 -182 29 -182 q 12 -182 -1 -180 q -14 -177 -28 -172 l -24 -124 q -23 -118 -20 -116 q -16 -114 -8 -114 q -4 -114 0 -114 q 4 -114 11 -114 q 50 -114 66 -96 q 83 -78 83 -38 l 83 506 z m 192 666 q 192 652 187 641 q 182 630 173 621 q 164 612 152 608 q 141 602 128 602 q 115 602 104 608 q 92 612 84 621 q 75 630 70 641 q 65 652 65 666 q 65 678 70 690 q 75 702 84 711 q 92 720 104 724 q 115 730 128 730 q 141 730 152 724 q 164 720 173 711 q 182 702 187 690 q 192 678 192 666 z"},"i":{"x_min":0,"x_max":256,"ha":256,"o":"m 172 506 l 172 0 l 83 0 l 83 506 z m 192 666 q 192 652 187 641 q 182 630 173 621 q 164 612 152 608 q 141 602 128 602 q 115 602 104 608 q 92 612 84 621 q 75 630 70 641 q 65 652 65 666 q 65 678 70 690 q 75 702 84 711 q 92 720 104 724 q 115 730 128 730 q 141 730 152 724 q 164 720 173 711 q 182 702 187 690 q 192 678 192 666 z"},"y":{"x_min":0,"x_max":512,"ha":512,"o":"m 222 -150 q 217 -160 210 -166 q 204 -172 190 -172 l 124 -172 l 216 30 l 7 506 l 84 506 q 96 506 102 501 q 108 495 112 488 l 247 169 q 252 158 255 147 q 258 136 260 124 q 264 136 268 147 q 271 158 276 170 l 407 488 q 410 496 417 501 q 424 506 433 506 l 504 506 z"},"@":{"x_min":0,"x_max":822,"ha":822,"o":"m 584 93 q 544 93 520 112 q 496 130 489 170 q 460 129 426 112 q 392 94 353 94 q 323 94 301 104 q 279 114 264 133 q 250 151 242 176 q 235 201 235 230 q 235 272 251 316 q 268 359 300 394 q 332 428 379 450 q 427 472 490 472 q 523 472 548 467 q 574 462 596 452 l 550 272 q 540 234 540 210 q 540 192 544 180 q 549 168 557 161 q 564 154 575 152 q 585 150 596 150 q 621 150 643 164 q 665 178 682 203 q 698 228 708 264 q 718 300 718 344 q 718 412 696 464 q 674 516 635 551 q 596 586 543 603 q 490 620 430 620 q 362 620 304 595 q 246 570 202 524 q 158 480 134 418 q 108 356 108 284 q 108 199 135 135 q 162 70 208 27 q 254 -16 317 -38 q 379 -60 450 -60 q 526 -60 585 -44 q 643 -28 686 -2 q 693 2 699 2 q 710 2 714 -10 l 727 -42 q 674 -78 605 -99 q 537 -120 450 -120 q 364 -120 290 -92 q 215 -64 160 -13 q 106 39 74 114 q 43 189 43 284 q 43 338 57 389 q 70 440 96 483 q 120 527 156 563 q 190 600 234 625 q 276 651 326 665 q 376 680 430 680 q 476 680 520 670 q 564 660 603 640 q 642 620 675 592 q 708 563 732 526 q 756 488 769 443 q 782 397 782 344 q 782 290 767 244 q 752 198 725 164 q 698 131 662 112 q 626 93 584 93 z m 370 153 q 386 153 402 158 q 418 163 432 176 q 447 188 459 210 q 472 231 480 264 l 518 411 q 498 416 476 416 q 438 416 407 400 q 376 384 353 358 q 330 333 318 300 q 305 267 305 232 q 305 196 322 175 q 338 153 370 153 z"},".":{"x_min":0,"x_max":212,"ha":212,"o":"m 44 55 q 44 68 49 80 q 54 91 62 100 q 70 108 82 113 q 93 118 106 118 q 119 118 130 113 q 142 108 150 100 q 159 91 164 80 q 168 68 168 55 q 168 42 164 30 q 159 19 150 10 q 142 2 130 -3 q 119 -8 106 -8 q 93 -8 82 -3 q 70 2 62 10 q 54 19 49 30 q 44 42 44 55 z"},"p":{"x_min":0,"x_max":552,"ha":552,"o":"m 73 -172 l 73 506 l 126 506 q 145 506 150 488 l 158 428 q 190 468 232 492 q 274 516 328 516 q 372 516 407 499 q 442 482 468 449 q 492 416 506 368 q 520 320 520 256 q 520 200 504 152 q 490 104 462 69 q 434 34 393 13 q 352 -7 301 -7 q 254 -7 221 8 q 188 24 162 52 l 162 -172 z m 298 444 q 255 444 222 424 q 190 404 162 367 l 162 122 q 186 89 216 76 q 245 62 281 62 q 352 62 390 112 q 428 163 428 256 q 428 306 419 342 q 410 377 394 400 q 377 422 353 433 q 329 444 298 444 z"},"X":{"x_min":0,"x_max":643,"ha":643,"o":"m 254 368 l 17 716 l 114 716 q 124 716 129 713 q 134 710 138 703 l 325 416 q 328 426 336 439 l 512 701 q 516 708 522 712 q 527 716 534 716 l 627 716 l 390 372 l 635 0 l 539 0 q 528 0 522 6 q 516 12 512 18 l 320 319 q 316 308 310 299 l 124 18 q 119 12 113 6 q 108 0 97 0 l 7 0 z"},"*":{"x_min":0,"x_max":400,"ha":400,"o":"m 177 432 l 177 530 q 177 540 178 548 q 180 556 183 564 q 173 552 156 542 l 70 492 l 48 530 l 134 580 q 152 590 171 592 q 161 593 152 596 q 144 598 134 604 l 48 655 l 70 692 l 156 642 q 174 632 185 616 q 180 626 179 635 q 177 644 177 654 l 177 753 l 221 753 l 221 654 q 221 634 214 618 q 220 626 226 632 q 233 637 242 642 l 328 692 l 350 654 l 264 604 q 255 599 247 596 q 238 593 230 592 q 238 591 247 588 q 255 586 264 580 l 350 530 l 328 492 l 242 542 q 232 548 226 553 q 218 558 213 566 q 221 550 221 530 l 221 432 z"},"Y":{"x_min":0,"x_max":629,"ha":629,"o":"m 363 285 l 363 0 l 266 0 l 266 285 l 4 716 l 89 716 q 102 716 110 710 q 117 704 122 694 l 286 416 q 296 398 303 382 q 310 367 316 352 q 321 368 328 383 q 334 398 344 416 l 508 694 q 512 702 520 709 q 528 716 540 716 l 626 716 z"},"c":{"x_min":0,"x_max":467,"ha":467,"o":"m 418 416 q 414 411 410 408 q 406 405 399 405 q 392 405 383 411 q 374 418 360 425 q 347 432 328 439 q 308 445 280 445 q 244 445 215 432 q 186 418 167 394 q 148 368 138 333 q 128 298 128 254 q 128 208 139 172 q 150 136 168 112 q 188 88 215 75 q 242 62 276 62 q 308 62 330 70 q 350 78 364 87 q 378 96 388 104 q 396 112 406 112 q 417 112 422 104 l 448 71 q 414 30 365 12 q 316 -7 260 -7 q 213 -7 172 10 q 132 28 102 61 q 72 94 54 143 q 37 192 37 254 q 37 310 53 358 q 68 406 99 441 q 129 476 174 495 q 218 514 276 514 q 328 514 370 497 q 410 480 442 448 z"},"!":{"x_min":0,"x_max":343,"ha":343,"o":"m 215 716 l 215 430 q 215 408 214 386 q 214 365 212 343 q 210 322 208 299 q 206 276 203 250 l 142 250 q 140 276 137 299 q 135 322 134 343 q 132 365 131 386 q 130 408 130 430 l 130 716 z m 109 55 q 109 68 114 80 q 118 91 127 100 q 135 108 146 113 q 158 118 171 118 q 184 118 196 113 q 207 108 216 100 q 224 91 229 80 q 234 68 234 55 q 234 42 229 30 q 224 19 216 10 q 207 2 196 -3 q 184 -8 171 -8 q 158 -8 146 -3 q 135 2 127 10 q 118 19 114 30 q 109 42 109 55 z"},"/":{"x_min":0,"x_max":373,"ha":373,"o":"m 80 -10 q 74 -28 60 -36 q 46 -45 32 -45 l -6 -45 l 294 704 q 301 720 313 728 q 325 736 342 736 l 379 736 z"},"[":{"x_min":0,"x_max":300,"ha":300,"o":"m 71 -144 l 71 766 l 255 766 l 255 732 q 255 720 248 714 q 242 708 230 708 l 146 708 l 146 -86 l 230 -86 q 242 -86 248 -92 q 255 -98 255 -110 l 255 -144 z"},"6":{"x_min":0,"x_max":580,"ha":580,"o":"m 325 439 q 368 439 406 425 q 445 410 474 383 q 503 356 520 316 q 537 276 537 226 q 537 176 519 134 q 501 91 469 60 q 436 28 391 10 q 346 -8 291 -8 q 237 -8 193 9 q 150 26 118 58 q 88 90 71 135 q 54 180 54 236 q 54 284 75 336 q 96 390 142 450 l 323 695 q 330 704 342 710 q 355 716 371 716 l 450 716 l 202 402 q 227 420 258 429 q 289 439 325 439 z m 140 221 q 140 186 150 158 q 160 130 179 109 q 198 88 226 77 q 254 66 290 66 q 326 66 354 78 q 384 89 404 110 q 425 130 436 158 q 448 186 448 219 q 448 254 436 282 q 426 310 406 330 q 386 350 358 360 q 330 371 296 371 q 260 371 231 359 q 202 346 182 326 q 162 305 151 278 q 140 250 140 221 z"},"r":{"x_min":0,"x_max":403,"ha":403,"o":"m 73 0 l 73 506 l 124 506 q 138 506 144 501 q 150 496 152 482 l 158 403 q 184 456 222 486 q 260 516 312 516 q 332 516 350 511 q 366 506 381 498 l 370 431 q 366 418 354 418 q 347 418 332 423 q 318 428 292 428 q 246 428 214 401 q 183 374 162 322 l 162 0 z"},"2":{"x_min":0,"x_max":580,"ha":580,"o":"m 300 724 q 346 724 386 711 q 425 698 454 672 q 482 646 499 609 q 516 572 516 525 q 516 485 504 451 q 492 417 471 386 q 450 354 424 325 q 397 296 367 266 l 178 72 q 198 78 219 81 q 240 84 258 84 l 498 84 q 513 84 522 76 q 530 68 530 54 l 530 0 l 52 0 l 52 30 q 52 40 56 50 q 60 60 68 68 l 298 299 q 326 328 350 355 q 373 382 390 408 q 406 436 416 463 q 424 491 424 522 q 424 554 414 578 q 404 602 387 617 q 370 632 346 640 q 322 648 296 648 q 268 648 246 640 q 222 632 205 618 q 187 604 175 584 q 162 564 158 541 q 154 526 146 520 q 138 514 124 514 q 122 514 119 514 q 116 514 113 514 l 66 522 q 74 572 94 609 q 114 647 144 672 q 175 698 215 711 q 254 724 300 724 z"},"{":{"x_min":0,"x_max":300,"ha":300,"o":"m 90 212 q 90 244 73 264 q 56 284 22 284 l 22 338 q 56 338 73 358 q 90 378 90 410 q 90 435 86 460 q 82 484 78 508 q 73 533 69 558 q 65 583 65 609 q 65 644 75 672 q 86 702 106 722 q 127 744 158 755 q 188 766 230 766 l 256 766 l 256 727 q 256 717 249 712 q 242 708 236 708 l 226 708 q 188 708 165 683 q 143 658 143 614 q 143 586 146 560 q 150 534 154 510 q 159 485 162 460 q 166 436 166 411 q 166 392 160 376 q 155 360 145 347 q 134 334 121 325 q 107 316 90 311 q 107 306 121 297 q 134 288 145 275 q 155 262 160 246 q 166 230 166 212 q 166 186 162 162 q 159 138 154 113 q 150 88 146 62 q 143 36 143 8 q 143 -36 165 -60 q 188 -86 226 -86 l 236 -86 q 242 -86 249 -90 q 256 -94 256 -104 l 256 -144 l 230 -144 q 188 -144 158 -133 q 127 -121 106 -100 q 86 -79 75 -50 q 65 -21 65 14 q 65 40 69 64 q 73 89 78 114 q 82 138 86 163 q 90 188 90 212 z"},"9":{"x_min":0,"x_max":580,"ha":580,"o":"m 274 294 q 234 294 198 308 q 162 321 134 347 q 106 374 90 412 q 74 450 74 500 q 74 546 92 588 q 109 628 140 659 q 172 690 216 707 q 259 724 311 724 q 362 724 404 708 q 446 690 476 660 q 506 630 523 587 q 539 544 539 493 q 539 462 533 434 q 528 406 516 380 q 506 354 490 327 q 475 301 456 273 l 281 21 q 274 12 262 6 q 250 0 235 0 l 153 0 l 371 286 q 382 300 392 313 q 401 326 410 339 q 382 317 348 306 q 313 294 274 294 z m 454 504 q 454 537 443 564 q 432 592 413 610 q 394 630 368 640 q 342 650 310 650 q 277 650 250 639 q 222 628 203 610 q 184 590 174 564 q 163 538 163 506 q 163 472 173 445 q 182 418 201 400 q 219 382 245 372 q 272 362 304 362 q 340 362 368 374 q 396 386 414 406 q 434 425 444 450 q 454 476 454 504 z"}," ":{"x_min":0,"x_max":193,"ha":193,"o":""},"I":{"x_min":0,"x_max":307,"ha":307,"o":"m 202 0 l 105 0 l 105 716 l 202 716 z"},"H":{"x_min":0,"x_max":756,"ha":756,"o":"m 668 0 l 570 0 l 570 326 l 184 326 l 184 0 l 87 0 l 87 716 l 184 716 l 184 397 l 570 397 l 570 716 l 668 716 z"},"4":{"x_min":0,"x_max":580,"ha":580,"o":"m 452 258 l 560 258 l 560 208 q 560 200 555 194 q 550 188 540 188 l 452 188 l 452 0 l 373 0 l 373 188 l 56 188 q 46 188 38 194 q 31 200 29 208 l 20 254 l 368 716 l 452 716 z m 373 554 q 373 567 374 582 q 374 597 377 613 l 116 258 l 373 258 z"},"~":{"x_min":0,"x_max":580,"ha":580,"o":"m 380 306 q 412 306 430 328 q 448 349 449 384 l 521 384 q 521 350 512 322 q 502 294 485 274 q 468 254 442 244 q 417 232 385 232 q 359 232 334 240 q 308 248 284 258 q 260 268 239 276 q 218 284 200 284 q 167 284 149 264 q 130 242 130 207 l 58 207 q 58 240 67 268 q 76 296 94 316 q 111 336 136 348 q 162 359 194 359 q 220 359 246 351 q 271 342 295 333 q 318 323 340 315 q 362 306 380 306 z"},"D":{"x_min":0,"x_max":753,"ha":753,"o":"m 708 358 q 708 278 682 212 q 657 146 610 98 q 564 52 499 26 q 434 0 355 0 l 87 0 l 87 716 l 355 716 q 434 716 499 691 q 564 665 610 618 q 657 570 682 504 q 708 438 708 358 z m 608 358 q 608 424 590 476 q 572 528 540 564 q 506 600 460 619 q 412 638 355 638 l 184 638 l 184 78 l 355 78 q 412 78 460 98 q 506 116 540 152 q 572 188 590 240 q 608 292 608 358 z"},"^":{"x_min":0,"x_max":580,"ha":580,"o":"m 258 716 l 316 716 l 494 394 l 430 394 q 422 394 416 398 q 410 404 406 410 l 308 586 q 301 598 296 609 q 292 620 288 630 q 281 608 270 586 l 172 410 q 168 404 163 398 q 157 394 147 394 l 79 394 z"},"0":{"x_min":0,"x_max":580,"ha":580,"o":"m 550 358 q 550 264 530 195 q 510 126 474 82 q 440 36 392 14 q 344 -8 290 -8 q 234 -8 187 14 q 140 36 105 82 q 70 126 50 195 q 30 264 30 358 q 30 452 50 521 q 70 590 105 635 q 140 680 187 702 q 234 724 290 724 q 344 724 392 702 q 440 680 474 635 q 510 590 530 521 q 550 452 550 358 z m 458 358 q 458 440 444 496 q 430 552 407 586 q 384 620 353 634 q 322 649 290 649 q 256 649 226 634 q 196 620 172 586 q 150 552 136 496 q 122 440 122 358 q 122 276 136 220 q 150 165 172 131 q 196 97 226 82 q 256 68 290 68 q 322 68 353 82 q 384 97 407 131 q 430 165 444 220 q 458 276 458 358 z"},"F":{"x_min":0,"x_max":566,"ha":566,"o":"m 528 716 l 528 638 l 184 638 l 184 387 l 478 387 l 478 308 l 184 308 l 184 0 l 87 0 l 87 716 z"},"`":{"x_min":0,"x_max":307,"ha":307,"o":"m 104 724 q 120 724 128 719 q 136 714 143 702 l 218 582 l 166 582 q 156 582 150 585 q 143 588 136 596 l 19 724 z"},"k":{"x_min":0,"x_max":524,"ha":524,"o":"m 166 736 l 166 303 l 188 303 q 198 303 205 306 q 212 308 220 317 l 380 488 q 387 496 394 502 q 402 506 414 506 l 496 506 l 309 308 q 302 300 295 293 q 288 286 280 282 q 289 276 296 268 q 304 260 310 250 l 508 0 l 428 0 q 417 0 409 4 q 402 8 394 18 l 228 225 q 220 236 213 239 q 206 242 190 242 l 166 242 l 166 0 l 76 0 l 76 736 z"},"u":{"x_min":0,"x_max":556,"ha":556,"o":"m 150 506 l 150 184 q 150 126 176 94 q 203 63 256 63 q 296 63 330 82 q 364 100 394 133 l 394 506 l 482 506 l 482 0 l 430 0 q 410 0 406 18 l 398 73 q 366 36 324 14 q 284 -8 230 -8 q 189 -8 157 6 q 126 20 104 44 q 82 70 72 105 q 61 140 61 184 l 61 506 z"},"]":{"x_min":0,"x_max":300,"ha":300,"o":"m 45 -110 q 45 -100 52 -92 q 58 -86 70 -86 l 154 -86 l 154 708 l 70 708 q 58 708 52 715 q 45 722 45 732 l 45 766 l 229 766 l 229 -144 l 45 -144 z"},"U":{"x_min":0,"x_max":730,"ha":730,"o":"m 366 77 q 410 77 445 92 q 480 107 504 134 q 528 161 541 198 q 554 236 554 281 l 554 716 l 650 716 l 650 281 q 650 219 631 166 q 611 113 574 74 q 538 36 484 14 q 432 -8 366 -8 q 300 -8 246 14 q 194 36 156 74 q 120 113 100 166 q 80 219 80 281 l 80 716 l 176 716 l 176 282 q 176 236 189 199 q 202 162 226 134 q 250 108 286 92 q 321 77 366 77 z"},"o":{"x_min":0,"x_max":556,"ha":556,"o":"m 278 514 q 334 514 378 496 q 423 478 454 444 q 486 410 502 361 q 519 313 519 254 q 519 194 502 146 q 486 98 454 64 q 423 30 378 11 q 334 -7 278 -7 q 222 -7 178 11 q 133 30 102 64 q 70 98 53 146 q 36 194 36 254 q 36 313 53 361 q 70 410 102 444 q 133 478 178 496 q 222 514 278 514 z m 278 62 q 353 62 390 113 q 427 163 427 253 q 427 344 390 394 q 353 444 278 444 q 240 444 212 432 q 184 418 165 394 q 146 370 137 334 q 128 298 128 253 q 128 208 137 172 q 146 137 165 113 q 184 88 212 76 q 240 62 278 62 z"},"N":{"x_min":0,"x_max":756,"ha":756,"o":"m 137 716 q 150 716 156 713 q 162 710 170 700 l 586 160 q 584 173 584 185 q 583 198 583 209 l 583 716 l 668 716 l 668 0 l 619 0 q 608 0 600 4 q 592 8 584 18 l 170 557 q 171 544 172 532 q 172 520 172 510 l 172 0 l 87 0 l 87 716 l 137 716 z"},"+":{"x_min":0,"x_max":580,"ha":580,"o":"m 326 583 l 326 370 l 529 370 l 529 302 l 326 302 l 326 87 l 252 87 l 252 302 l 50 302 l 50 370 l 252 370 l 252 583 z"},"G":{"x_min":0,"x_max":734,"ha":734,"o":"m 406 70 q 436 70 460 73 q 484 76 506 82 q 527 87 546 95 q 565 102 584 112 l 584 270 l 473 270 q 464 270 458 276 q 452 282 452 290 l 452 344 l 672 344 l 672 70 q 645 50 616 36 q 586 21 553 11 q 520 2 482 -3 q 444 -8 400 -8 q 322 -8 256 19 q 192 46 144 94 q 98 142 71 210 q 45 277 45 358 q 45 440 71 508 q 96 575 144 623 q 192 672 260 698 q 328 724 412 724 q 454 724 490 718 q 527 712 558 700 q 590 688 616 672 q 642 655 666 634 l 638 590 q 630 576 616 576 q 608 576 598 582 q 586 589 570 599 q 555 609 533 618 q 510 628 480 634 q 450 640 408 640 q 348 640 299 621 q 250 601 216 564 q 181 528 162 475 q 144 423 144 358 q 144 290 163 237 q 182 184 218 146 q 252 110 300 90 q 348 70 406 70 z"},"q":{"x_min":0,"x_max":559,"ha":559,"o":"m 482 506 l 482 -172 l 394 -172 l 394 75 q 362 38 321 16 q 280 -7 228 -7 q 184 -7 148 10 q 113 26 88 59 q 63 92 50 140 q 36 188 36 252 q 36 308 51 356 q 66 404 94 440 q 122 475 163 495 q 204 516 255 516 q 304 516 338 498 q 372 480 400 448 l 406 488 q 410 506 430 506 z m 257 65 q 300 65 333 85 q 366 105 394 142 l 394 386 q 370 418 340 432 q 310 446 275 446 q 204 446 166 396 q 128 345 128 252 q 128 202 136 167 q 145 132 162 109 q 178 86 202 76 q 226 65 257 65 z"},"d":{"x_min":0,"x_max":559,"ha":559,"o":"m 430 0 q 410 0 406 18 l 398 80 q 365 40 323 17 q 282 -7 228 -7 q 184 -7 148 10 q 113 26 88 59 q 63 92 50 140 q 36 188 36 252 q 36 308 51 356 q 66 404 94 440 q 122 475 163 495 q 204 516 255 516 q 302 516 334 500 q 368 484 394 456 l 394 736 l 482 736 l 482 0 z m 257 65 q 300 65 333 85 q 366 105 394 142 l 394 386 q 369 420 340 433 q 310 446 275 446 q 204 446 166 396 q 128 345 128 252 q 128 202 136 167 q 145 132 162 109 q 178 86 202 76 q 226 65 257 65 z"},"1":{"x_min":0,"x_max":580,"ha":580,"o":"m 144 68 l 298 68 l 298 556 q 298 578 299 601 l 171 492 q 166 488 161 486 q 156 484 152 484 q 144 484 138 487 q 132 490 129 495 l 101 534 l 314 718 l 386 718 l 386 68 l 528 68 l 528 0 l 144 0 z"},"5":{"x_min":0,"x_max":580,"ha":580,"o":"m 489 678 q 489 658 477 646 q 465 634 436 634 l 212 634 l 178 446 q 234 458 282 458 q 338 458 381 442 q 424 425 452 396 q 482 367 496 328 q 511 288 511 242 q 511 184 491 138 q 471 92 436 60 q 402 27 354 10 q 308 -8 253 -8 q 222 -8 192 -2 q 164 4 138 15 q 114 26 92 39 q 70 52 54 68 l 81 106 q 90 118 105 118 q 114 118 127 111 q 140 103 158 94 q 176 84 200 76 q 224 68 258 68 q 296 68 326 80 q 356 92 377 115 q 398 137 410 168 q 421 199 421 238 q 421 271 411 298 q 402 325 382 344 q 362 363 332 374 q 303 384 264 384 q 236 384 208 380 q 178 375 148 365 l 92 382 l 150 716 l 489 716 z"}}}
